<svg width="640" height="760" viewBox="0 0 640 760" fill="none" xmlns="http://www.w3.org/2000/svg">
  <rect width="640" height="760" rx="48" fill="url(#paint0_linear_1_2)"/>
  <circle cx="320" cy="250" r="132" fill="#F5C8B8"/>
  <path d="M203 221C203 138.709 269.709 72 352 72H363C445.291 72 512 138.709 512 221V265H203V221Z" fill="#161025"/>
  <path d="M204 255H439V468C439 565.754 359.754 645 262 645C229.967 645 204 619.033 204 587V255Z" fill="#F5C8B8"/>
  <path d="M374 311C374 328.673 359.673 343 342 343C324.327 343 310 328.673 310 311C310 293.327 324.327 279 342 279C359.673 279 374 293.327 374 311Z" fill="#161025" fill-opacity="0.9"/>
  <path d="M273 311C273 328.673 258.673 343 241 343C223.327 343 209 328.673 209 311C209 293.327 223.327 279 241 279C258.673 279 273 293.327 273 311Z" fill="#161025" fill-opacity="0.9"/>
  <path d="M259 388C279.5 405.333 318.5 409.6 369.5 378" stroke="#A362FF" stroke-width="18" stroke-linecap="round"/>
  <path d="M152 704C170.806 587.835 270.377 502 388 502H403C507.381 502 596.664 577.235 620 679.736V760H152V704Z" fill="#23113B"/>
  <path d="M121 704C139.806 587.835 239.377 502 357 502H372C476.381 502 565.664 577.235 589 679.736V760H121V704Z" fill="#A362FF" fill-opacity="0.18"/>
  <circle cx="124" cy="120" r="44" fill="#A362FF" fill-opacity="0.18"/>
  <circle cx="524" cy="632" r="56" fill="#A362FF" fill-opacity="0.18"/>
  <defs>
    <linearGradient id="paint0_linear_1_2" x1="320" y1="0" x2="320" y2="760" gradientUnits="userSpaceOnUse">
      <stop stop-color="#15042A"/>
      <stop offset="1" stop-color="#0B0218"/>
    </linearGradient>
  </defs>
</svg>
