<svg width="1200" height="760" viewBox="0 0 1200 760" fill="none" xmlns="http://www.w3.org/2000/svg">
  <rect width="1200" height="760" rx="40" fill="#1A0B2E"/>
  <rect x="68" y="68" width="1064" height="624" rx="28" fill="url(#paint0_linear_2_2)"/>
  <rect x="112" y="128" width="340" height="500" rx="24" fill="#120427"/>
  <rect x="486" y="128" width="562" height="72" rx="20" fill="#241143"/>
  <rect x="486" y="234" width="562" height="176" rx="24" fill="#2D1550"/>
  <rect x="486" y="444" width="270" height="140" rx="24" fill="#241143"/>
  <rect x="778" y="444" width="270" height="140" rx="24" fill="#241143"/>
  <circle cx="282" cy="254" r="86" fill="#A362FF" fill-opacity="0.18"/>
  <path d="M168 266C212.833 225.667 309.3 183.2 337.5 339" stroke="#A362FF" stroke-width="18" stroke-linecap="round"/>
  <path d="M193 396C246.167 349.667 331.1 363.2 377.5 506" stroke="#7B4FD1" stroke-width="18" stroke-linecap="round"/>
  <text x="486" y="182" fill="#C9A7FF" font-family="Arial, sans-serif" font-size="34" font-weight="700">Bindu Premium</text>
  <text x="486" y="285" fill="white" font-family="Arial, sans-serif" font-size="54" font-weight="700">Social Media Campaign</text>
  <text x="486" y="347" fill="white" font-family="Arial, sans-serif" font-size="54" font-weight="700">Management</text>
  <text x="486" y="510" fill="#D9D2E6" font-family="Arial, sans-serif" font-size="28">Audience strategy</text>
  <text x="486" y="552" fill="#D9D2E6" font-family="Arial, sans-serif" font-size="28">Creative direction</text>
  <text x="778" y="510" fill="#D9D2E6" font-family="Arial, sans-serif" font-size="28">Content planning</text>
  <text x="778" y="552" fill="#D9D2E6" font-family="Arial, sans-serif" font-size="28">Brand storytelling</text>
  <defs>
    <linearGradient id="paint0_linear_2_2" x1="600" y1="68" x2="600" y2="692" gradientUnits="userSpaceOnUse">
      <stop stop-color="#2B0F4C"/>
      <stop offset="1" stop-color="#160925"/>
    </linearGradient>
  </defs>
</svg>
